<?xml version="1.0" encoding="utf-8"?>
<!-- Generator: Adobe Illustrator 15.1.0, SVG Export Plug-In  -->
<!DOCTYPE svg PUBLIC "-//W3C//DTD SVG 1.1//EN" "http://www.w3.org/Graphics/SVG/1.1/DTD/svg11.dtd" [
	<!ENTITY ns_flows "http://ns.adobe.com/Flows/1.0/">
]>
<svg version="1.1"
	 xmlns="http://www.w3.org/2000/svg" xmlns:xlink="http://www.w3.org/1999/xlink" xmlns:a="http://ns.adobe.com/AdobeSVGViewerExtensions/3.0/"
	 x="0px" y="0px" width="510px" height="510px" viewBox="-37.654 -4.726 510 510" enable-background="new -37.654 -4.726 510 510"
	 xml:space="preserve">
<defs>
</defs>
<path fill-rule="evenodd" clip-rule="evenodd" d="M180.475,11.245c11.609,15.968,7.794,46.741,26.767,55.644
	c26.062-0.674,25.307-27.081,40.147-38.522c37.423-25.598,80.812-4.661,84.757,21.401c8.344,55.104-94.203,80.456-84.757,136.968
	c9.536,33.494,46.84-40.814,80.296-4.281c29.544,65.467-102.894,51.963-95.405,99.257c8.479,69.408,83.598-43.18,99.866,7.75
	c7.444,61.115-90.009,39.543-71.376,85.605c31.053,43.338,93.146-42.834,84.878-31.873c43.16-57.209,85.813-159.123,29.777-256.006
	c99.626,91.095,71.729,313.357-69.21,350.594c14.787,9.459,18.504,36.646,8.087,48.568c-10.346,11.842-36.933,22.807-57.991,4.281
	c-10.31-14.361,2.403-39.824-26.765-47.08c-18.745-4.664-32.433,39.398-55.647,52.135c-15.555,8.533-43.473,1.455-59.915-15.34
	c-14.078-14.379-14.788-47.295,0.466-56.301c26.519-15.656,80.032-33.082,83.868-87.5c-5.471-40.646-59.689,35.025-84.756,8.559
	c-34.083-68.123,83.784-46.83,89.217-102.725c-0.074-36.338-67.55,32.542-89.217-8.562c-38.333-69.896,114.667-36.896,93.68-94.165
	c-24.013-47.731-112.56,5.376-147.334,72.364c-19.86,38.258-46.917,121.406-34.647,187.93
	C-22.375,289.606-9.89,111.731,125.831,70.548c-16.777-6.39-21.382-28.988-8.3-51.689C125.911,4.318,159.07-11.08,180.475,11.245z"
	/>
</svg>
